# xmcd
#
# Track frame offsets:
#  182
#  20582
#  31382
#  49762
#  67097
#  78462
#  94002
#  108097
#  119280
#  137642
#  155920
#  167547
#
# Disc length: 2404 seconds
#
# Revision: 0
# Processed by: cddbd v1.5.2PL0 Copyright (c) Steve Scherf et al.
# Submitted via: Collectorz.com_Music_Collector 6.11
#
DISCID=9b09620c
DTITLE=Various Artist - NfS Country Singles Volume 26
DYEAR=1995
DGENRE=Country
TTITLE0=The Wheel - Mid-Life Crisis
TTITLE1=clint beatie - The Good Love
TTITLE2=Carol Young - I'm The Reason
TTITLE3=Mitchell Shadlow - Big Decision
TTITLE4=Red Rivers - Drifting Boy
TTITLE5=Harry Young - After Harvest
TTITLE6=Truckin' Stevens - Woman Behind The Man
TTITLE7=Bill Murray - Weekend Millionaire
TTITLE8=Kathy Raydings - In The Pouring Rain
TTITLE9=Greg Gardner - Steel On Wheels
TTITLE10=Wally Sparrow - Well And Truly Sparrowed
TTITLE11=Brenda-Lee Heatcote - The Belle Hotel
EXTD=
EXTT0=
EXTT1=
EXTT2=
EXTT3=
EXTT4=
EXTT5=
EXTT6=
EXTT7=
EXTT8=
EXTT9=
EXTT10=
EXTT11=
PLAYORDER=
